<svg version="1" xmlns="http://www.w3.org/2000/svg" width="1438.667" height="1438.667" viewBox="0 0 1079.000000 1079.000000"><path d="M506.1 109c-14.5 28-26.4 51-26.7 51-.2 0-5-4.6-10.6-10.3-33.8-33.6-80-59.3-130.3-72.2-53.4-13.7-118.3-7.7-171.4 15.8-49.5 22-90.8 61.7-114.6 110.2-8.3 16.9-12.9 29.6-17.5 48-5.5 21.8-7.4 38.3-6.6 58 2.1 55.1 20.8 108.6 50.7 145.1 17.4 21.4 43.2 39.3 67 46.5l7.6 2.4-.5 9.5c-.7 15 3.1 28.1 12 41.7 12.5 19.1 34 34.5 56.3 40.4 6.6 1.7 9.8 2 18 1.5 5.5-.3 11.5-.8 13.3-1.2l3.2-.7-4.4 8.4C221.1 661.3 134 832.5 134.4 833.6c.5 1.2 18.5 1.4 124.6 1.4 84.3 0 124 .3 124 1 0 .6-1.3 3.7-3 7-13 25.8-12.7 49.9 1 68.1 11.5 15.3 29.4 24.4 65 33.1 30.2 7.3 45.3 13.3 58.7 23.1 14 10.4 23.2 28.5 23.3 45.9 0 3.8.4 5 2.3 6.2 3.3 2.1 9.7 2.7 13.7 1.3 3.5-1.2 3.5-1.3 4.2-8.7 1.1-10.8 2.6-16.5 6.4-24.7 8.9-18.8 31.1-32.4 66.4-40.8 41.8-9.9 61.4-19 73.1-33.7 14.7-18.5 15.5-41.6 2.3-69.3-1.9-3.9-3.4-7.5-3.4-7.8 0-.4 56.2-.7 124.9-.7s125.6-.3 126.5-.6c.9-.3 1.6-1.7 1.6-3s-29.9-58.5-66.5-127.1c-64.7-121.5-66.4-124.8-63.9-125.1 1.5-.2 5.5.1 8.9.7 13.9 2.4 35.7.9 51.4-3.6 22.5-6.4 42-20.8 48.7-35.9 5.4-12.3 5.6-24.4.4-39.1-1.7-4.9-3.3-9.5-3.6-10.3-.4-1.2 1.2-2.1 6.8-3.9 31-10 61.6-35 83.5-68.3 13.3-20.2 26.8-53.1 32.3-78.3 5.5-25.9 7.2-52.8 4.6-72-14.9-106.2-84.9-176.1-198.2-197.9-22.7-4.4-41.3-5.9-71.4-6-23.7 0-29.5.3-42 2.2-46.5 7.2-85 23.1-114.5 47.2-9.8 8-21.9 21-29 31.3-3.3 4.7-6.3 8.6-6.6 8.6-.3.1-12-21.4-26-47.6-15.4-28.9-26.1-47.9-27-48.1-1.2-.2-8.2 12.4-27.8 50.8zm317.7-20.6c45.8 7 86.4 23.7 117.6 48.4 15.6 12.3 33.7 32.9 44.6 50.7 11.7 19.1 21.1 42.5 25.1 62.3 2.7 13.6 3.8 46.2 2 60.9-5.8 47.3-29.7 90.5-68.3 122.9-20.8 17.4-38.7 26.7-58.6 30.5-10.3 1.9-11.5 4.7-5.3 12.5 8.2 10.4 10.9 19.9 9.1 32.4-2.7 18.9-15.5 32.4-35 37.1-7.5 1.7-24 1.5-32.5-.5-10.5-2.5-22.8-9-29.7-15.7-10.1-9.9-14.2-22-11.9-35.5 1.9-10.8 7.3-19 16.8-25.5 3.7-2.6 4.2-3.3 3.3-4.9-1.4-2.6-3.7-3.8-13.9-6.7-18.1-5.2-34.3-14.6-45.7-26.5-15.7-16.4-22.7-34.5-22.8-59.3-.1-10.7.3-14.2 2.1-20 5.7-18 19.9-32.7 38-39.1 7.5-2.6 17.9-3.2 20.5-1.2.8.7 2.5 4.2 3.8 7.8 7.8 22.3 21.1 35.9 38.5 39.1 17.8 3.3 39.3-5.6 55.8-23 17-18.1 22.7-39.2 16.3-59.6-11.3-35.6-54.5-69.4-99.5-77.9-10.7-2-31.4-2.1-41.8-.1-32 6.1-60 26.4-81.8 59.5-8.9 13.3-10.5 15-14.9 15-2.2 0-3.2-1.2-7.2-9.3-2.5-5-12.7-24.7-22.7-43.5-22.3-42.6-21.8-40.3-11.2-56.2 8.4-12.8 24.9-29.6 38.5-39.3 25.6-18.1 64.2-32.4 99.5-36.6 12.1-1.4 59-.6 71.3 1.3zM301.5 95c65.8 7.3 125.4 39.5 151 81.6 5.9 9.6 5.7 10.6-13.8 51.9-25.7 54.6-24.5 52.4-27.4 53.1-3.3.9-6.5-1.6-13.1-10.2-26.4-34.6-55.5-54.6-88.2-60.8-10.5-2-31.3-2.1-41.7-.1-48.6 9.2-91.1 49.2-93.9 88.4-2.8 38.4 36.6 74.6 72.8 67 17.8-3.8 35.5-18.8 46.3-39.3 5.4-10.2 8.6-11.4 20.3-7.8 11.1 3.5 23.5 13.9 29.6 24.8 25.6 45.9-3.8 104.3-62.3 123.4-5 1.6-10.4 3.6-12 4.4-3.6 1.9-4.8 4.7-2.5 6.1 10.3 6.1 17.3 13.2 22.1 22.6 2.5 4.8 2.8 6.5 2.8 14.9 0 8.8-.3 10.1-3.3 16.2-6 12.2-20.7 22.8-37.2 26.9-8 2-27.9 1.7-36-.5-22.6-6.2-38.7-22.1-40.6-40.3-.8-7.7 2.1-18 6.8-24.2 9.4-12.4 10.1-16.9 3.4-21-1.8-1.1-11.5-4.3-21.7-7.1-25.6-7.1-33.9-11.3-49.2-24.8-25.6-22.7-46.1-56.8-55.3-92.1-8.5-32.7-6.8-77.3 4.3-111.5 8.7-27.1 20.6-45.8 43.4-68.3 42-41.4 97.2-68.2 151.9-73.6 8-.8 35.1-.6 43.5.3zm231.2 25.2c2 2.2 341.4 657 343.7 663 2.3 6.3 30.3 5.8-345.7 5.8-234.4 0-343.4-.3-344.8-1-1.1-.6-1.9-2.1-1.9-3.6 0-2 336.5-654.1 342.7-664.2.7-1.2 1.9-2.2 2.6-2.2.8 0 2.3 1 3.4 2.2zM807 231.9c25.5 8.6 40.6 20.5 50.1 39.7 3.4 6.7 4.2 9.4 4.6 16 1.1 16-3 32.3-9.4 37.4-4.1 3.2-15 6.2-25 6.7-8.6.5-9.5.4-13.6-2-2.5-1.5-5.8-4.7-7.5-7.2-3.7-5.6-6.7-16.1-5.8-20.7 2.4-12.5 1.3-19-4-22.5-3-1.9-11.8-1.9-22 0-4.3.9-10.5 1.9-13.7 2.2-16.2 1.8-34.7 12.8-46.7 27.8-8.8 11-19 35.2-19 45.1 0 1.2-.4 1.6-.9 1.1-.5-.6-7.7-13.6-15.9-29l-14.9-28 5.1-2.5c6.7-3.2 13.4-10.1 23-23.5 17.8-24.8 29.5-34.5 49.3-40.5 11.6-3.5 15.8-3.9 36.8-3.6 19.5.3 20.3.4 29.5 3.5zm-481 9.6c9.7 2.5 23.7 9.7 31.1 15.9 3.6 3 10.4 10.3 15 16.2 4.6 5.9 10.9 13.9 14 17.9 4.9 6.2 8.7 9.4 16.4 14 1.6 1 .4 3.8-12.2 28.3l-14 27.2-2.1-8.1c-8-29.8-32.7-54.7-59-59.4-24-4.4-36.3-5.3-40.2-3.3-3.2 1.7-7 8.4-7 12.4 0 1.7.7 5.1 1.5 7.5 3.5 9.7-2.8 26-12 31.5-5.3 3-15.4 3.3-26.7.5-8.7-2-11.6-3.6-15.1-8.3-4.4-5.9-6-12.3-6.4-26.3-.4-11.3-.2-13.8 1.6-19 4.4-12.4 17.6-27.8 30.4-35.4 9.6-5.6 24.5-11.3 33.7-12.7 11.9-1.8 42.3-1.2 51 1.1zm344.9 596.8c4 6.4 10 19.3 12.2 26.2 3.4 10.2 3.3 22.2-.3 29-5.1 9.8-17.1 18.2-35.3 24.8-3.8 1.3-16 4.8-27.1 7.5-21.8 5.6-32.2 9.1-43.6 14.8-15.7 7.9-26 16.4-33.7 28l-5 7.4-4.5-6.8c-5.5-8.4-14-16.6-23.4-22.6-13.5-8.8-26.3-13.6-55.7-21.1-29.7-7.6-43.3-13.1-53-21.7-15-13.2-14.6-33.1 1.5-61.1l4.4-7.7h261.4l2.1 3.3z"/><path d="M812.9 116.3c-12.9 4.8-20.3 15.9-20.2 30.2.1 14.5 10.1 25.1 24.8 26.3 24 1.9 39.8-30.5 23.4-48.3-6.8-7.4-19.9-11.2-28-8.2zm17.8 5.8c4.5 4.3 5.7 7.8 5.6 16.4-.2 17.4-8.7 30.8-19.5 30.7-8.3-.1-12.7-6.7-12.8-18.7 0-13.3 5.3-26.4 12.1-29.9 4.6-2.3 11.2-1.6 14.6 1.5zM772 118.4c0 2-4 3.1-24.5 6.7-26.1 4.5-30.5 6.9-30.5 16.9 0 4.5 1.6 5.3 3 1.6 1.1-3 4.3-5.1 8.7-6 3.7-.6 3.5-1 5.2 9.9 1.9 12 2.3 18.2 1.2 22.3-2.1 7.5-6.8 9.6-9.9 4.2-1.7-3.1-4.2-4-4.2-1.7 0 3.4 3.5 11 5.7 12.4 3.7 2.5 9.1.8 11.7-3.7 2.8-4.7 2.6-18.6-.3-32.7-1.2-5.5-2.1-10.5-2.1-11.1 0-.8 14.9-4.6 15.5-4 .2.2 1.7 7.3 3.4 15.9 4.1 20.2 4.5 21.7 7.8 25.1 3.4 3.5 7.9 4.4 12.6 2.5 5.9-2.5 8.8-9.2 7.3-17.2-1.1-5.6-2.9-3.7-3 3.2-.1 6.7-1.6 9.3-5.2 9.3s-4.9-3.1-8.4-20.5c-1.7-8.8-3.4-17-3.7-18.2-.4-1.9.1-2.3 3.9-3.3 7.3-1.9 8.8-3.4 8.8-8.5 0-3.3-.4-4.5-1.5-4.5-.8 0-1.5.6-1.5 1.4zM886.2 122c-15.4 7.8-32.1 33.8-32.2 50.3 0 17.9 16.7 28.7 32.9 21.1 6.6-3 19-15.3 24-23.7 7.8-13.2 11-27.4 8.1-36.1-4.3-13.1-19.2-18.4-32.8-11.6zm22.4 2.9c7.9 4.8 6.5 15.2-4.3 33.8l-2.4 4.2-12.4-8.2c-6.9-4.5-12.5-8.6-12.5-9 0-1.3 8.3-11.8 12.7-15.8 7.3-7 13.1-8.5 18.9-5zm-20.9 32.3l12.3 8.1-1.6 2.6c-8.1 12.9-17.7 22.1-24.4 23.6-3.7.8-9.4-1.6-11.5-4.9-2.9-4.4-2-12.5 2.2-21.1 3.5-6.9 9.3-16.5 10.1-16.5.3 0 6.2 3.7 12.9 8.2zM670.5 129.9c-4.4 1.1-7.2 3.1-10.1 7.3-5.3 7.6-5 16.2 1 27.5 3 5.5 3.1 6.2 1.3 4.9-5.3-3.8-15.1-8.9-18.6-9.7-6.4-1.4-15.8 2.6-18.6 8-2.6 5-3.7 11.4-2.6 14.4 1.7 4.5 5.1 3 5.1-2.4 0-1.1 1.9-4 4.1-6.4 10.4-11.3 19.4-7.2 43.3 19.5 17.5 19.7 17.8 20.2 13.1 25.8-4.8 5.7-1 4 7-3.1 4.4-4 10.2-9.1 12.9-11.4 4.9-4.3 5.7-8.1.9-4.3-2.6 2-6.9 2.6-8.9 1.2-1.5-1-16.9-18.3-23.8-26.7-3.1-3.9-7.3-10.2-9.3-14.2-4.4-9-4.2-13.7.8-18.9 3.8-3.9 9.4-6.8 11.9-6.1 2.3.6 4.5-.8 3.5-2.3-.9-1.4-6.8-4.1-8.7-3.9-.7.1-2.6.4-4.3.8zM929.5 178.6c-1.6.8-3.6 2.2-4.4 2.9-2.6 2.5-.2 2.9 3.8.7 2.1-1.2 4.8-2.2 5.9-2.2 2.6 0 4.5 2.4 3.8 4.7-.3 1-9.1 8.3-19.6 16.2-10.4 7.9-19 14.9-19 15.5.1.6 1.4 2.6 2.9 4.4l2.9 3.4 9.3-7.1c12.3-9.2 24.1-15.3 31.2-15.9 4.6-.4 5.7-.1 8.5 2.3 3.6 3 4.2 6.7 1.7 10.2-.8 1.2-14.3 11.9-30 23.8S898 259.3 898 259.6c0 .9 5.5 7.4 6.2 7.4 2 0 55.3-41.7 57.9-45.2 5.1-7.1 3.4-15.4-4.4-21.2-3.5-2.6-11.8-2.6-18.7-.2l-4.5 1.6 3.8-3.2c8.2-7.1 9.8-13.3 4.8-18.7-3.3-3.6-8.5-4.2-13.6-1.5zM977.5 260.9c-.3 1.6-1.5 3.7-2.6 4.7-2.2 2-8.3 2.1-33.3.3-16.4-1.1-16.6-1.1-16.6 4.8v3.1l10.8.6c5.9.4 12.6.9 15 1.2l4.3.5-9.3 6.8c-15.9 11.5-17.8 12.7-18.9 11-.5-.8-.9-2.2-.9-3.2 0-.9-.4-1.7-.9-1.7-.9 0-2.1 12.7-2.1 22.2 0 6.2 1.4 7.8 2.4 2.8.3-1.7 1.7-4.1 3-5.3 2.8-2.6 31-22.5 32.9-23.3 1.4-.5 10.7 10.4 12.8 14.9 1.1 2.4.9 3.1-1.6 6.7-3.2 4.6-3.5 8.2-1 11 3.8 4.2 9.1 1.4 10.2-5.4.8-5.3-3.8-13.9-14.2-26.4L959 276l12.6.6c12.3.7 12.7.7 12-1.2-.4-1-1.5-5.4-2.3-9.7-1.7-8.2-2.7-9.5-3.8-4.8zM920 335.5c-.7 2.5-1.1 4.7-.9 4.9.2.2 4.2 1.6 8.9 3.1 11 3.6 21.8 8.5 27.5 12.6 10.3 7.4 10.6 19.9.6 19.9-2 0-18.5-5-36.6-11-18.2-6.1-33.5-10.8-34.1-10.6-1 .4-3.9 8.5-3.2 9.1.2.1 14.9 5.1 32.7 11 34.7 11.5 40.2 12.6 45.5 9.2 4.2-2.8 6.6-7.5 6.6-13.1 0-6-2.5-10.3-8.9-15.3-3.4-2.6-3.9-3.4-2.1-2.9 5.3 1.6 13.2 1.9 15.5.6 1.3-.7 3.1-3 4-5.2 1.3-3.3 1.3-4.3.1-7.2-2-4.9-11.8-11-13-8.1-.3.9 1.1 2.1 4 3.5 6.4 3.2 7.5 9 1.6 9-1.5 0-12.2-3.2-23.7-7-11.5-3.9-21.5-7-22.1-7-.6 0-1.7 2-2.4 4.5zM296 150.3c-.7 12.9-1 24.6-.6 26 1 4.1 3.9 6.7 8.4 7.8 9.8 2.2 16.2-3.4 16.2-14.2 0-5-2.4-4.9-2.8.2-.4 5-2.1 8.7-4.4 9.5-3.1 1-6.7-.4-7.3-2.9-.3-1.2.1-12.5.9-25.2.8-12.6 1.3-23.2 1-23.4-.2-.2-2.5-.6-5.2-.9l-4.9-.4-1.3 23.5zM254 132.5l-4.5 1.1.3 10 .3 9.9-2.2-3.5c-7.1-11.6-14.9-14.6-25.5-9.6-8.7 4-13.4 12.5-13.4 24 0 12.2 5.6 22.9 14.7 28.3 3.9 2.3 5.9 2.8 10.8 2.7 11.3-.1 18.9-6.5 23-18.9.6-1.8.8-1.7 2.3 1.1 3.5 6.4 6.9 9.4 10.6 9.4 3.1 0 5.6-3.8 5.6-8.4 0-4.9-.7-7.6-2.1-7.6-.5 0-.9.9-.9 1.9 0 2.3-2.5 5.1-4.6 5.1-.8 0-3.1-1.5-5.2-3.4l-3.7-3.4.3-14.9c.1-8.1-.1-17.1-.5-19.9l-.8-5-4.5 1.1zm-15 12c9.3 5.9 15.1 28.2 10.1 39.1-2.4 5.2-5.5 7.4-10.5 7.4-10.1 0-17.1-10.9-19.1-29.6-1.7-16.3 7.7-24.5 19.5-16.9zM358.8 144.1c-9.8 1.5-19.1 8.8-24 18.8-1.8 3.6-2.3 6.3-2.3 12.8 0 7.4.3 8.5 3 12.4 5.9 8.4 17.8 12 27.6 8.5l3.7-1.3-1.9 4.1c-3.8 8.5-1.2 16.6 4.9 15.1 3.1-.7 10.4-7.4 9.6-8.7-.3-.5-1.2-.4-1.9.2-.8.6-2.6 1-4.2.8-2.6-.3-2.8-.7-3.1-5-.2-2.6.2-5.6.8-6.8.6-1.1 4.3-4.2 8.3-6.9 4.1-2.7 10.8-7.7 15.1-11.1 8.4-6.7 8.4-6.8 2.4-11.1l-2.9-2.1-6.2 5.4c-8.4 7.4-9 7.6-6.7 2.6 1.3-2.8 2-6.5 2-10.5 0-5.6-.3-6.6-3.1-9.8-5.5-6.3-12.4-8.7-21.1-7.4zm17.3 8.7c7.3 6.5 3.8 20.7-8 32.2-9.3 9.1-18.9 11.4-24.7 5.9-7.5-7-4-19.7 8.7-32 7-6.7 11-8.8 16.6-8.9 3.3 0 5 .7 7.4 2.8zM168.9 171.8c-6.5 3.4-9.1 10.3-10.8 30.1-.6 6.3-1.2 11.6-1.5 11.8-.2.2-3.9-3.7-8.2-8.6-6.5-7.4-8.1-8.7-8.9-7.4-.5.8-2.9 4.4-5.2 7.9-5.4 8.1-5.7 10.5-.9 6.9 2.8-2.1 6.7-1.8 9.7.8 1.5 1.2 8.2 8.5 14.9 16.2 6.8 7.7 12.9 14.6 13.5 15.3 1 1.2 1.8.9 4.6-1.6l3.3-2.9-9.8-11.2c-6.5-7.4-9.2-11.1-8-11.1 3.4 0 28.2 4.2 29.5 5 1.1.7 1.1 1.3-.1 3.4-2.7 5.1.1 3.7 9.7-5 10.3-9.3 13-12.8 7.4-10-4.2 2.2-7.1 2.1-28.5-1.6l-18.8-3.2.6-7.5c1.1-12.7 3-16.1 8.9-16.1 3.3 0 7.7-3.6 7.7-6.4 0-5-4.2-7.2-9.1-4.8zM106.3 251.3l-2.1 4.3 21.3 10.7c23.9 12 27.1 12.8 31.7 7.9 3.6-3.9 4.8-6.5 4.8-10.9 0-3.1-.7-4.5-3.2-7-4.5-4.2-9.5-6.7-10.4-5.1-.4.6-.3 1.3.4 1.6 2.7.9 9 6.2 9.4 8 .8 2.8-1.3 6.6-3.9 7-1.2.2-11.4-4.3-23.2-10.2-11.6-5.8-21.4-10.6-21.9-10.6-.4 0-1.7 1.9-2.9 4.3zM102.2 309.7c-19.9 14.6-35.9 27-35.5 27.4 1 .8 87.4 21.1 88 20.6.2-.2-3.1-16.9-7.2-37.2-4.1-20.2-7.5-36.9-7.5-37.1 0-1.3-4.9 2.1-37.8 26.3zm36.8-10.2c0 .3 2.3 11.6 5 25.2 2.8 13.6 4.9 25.3 4.8 25.8-.2.7-12.3-1.8-31.2-6.5l-31-7.5 25.5-18.7c23.5-17.4 26.9-19.6 26.9-18.3zM525.8 369.7c-2.9 3.1-153.3 292.8-154.8 298.1-1.2 4.6-.4 6 4 7.2 2.5.7 55.3.9 158.2.8 163.6-.3 157.8-.1 157.8-4.7 0-.9-.8-3-1.7-4.6-.9-1.7-35.5-68.4-77-148.4S536 371.4 534.9 369.8c-2.6-3.6-5.8-3.6-9.1-.1zm9.6 63.8c.9 1.4 9.3 17.1 18.6 34.9l17 32.2V654h-75V494l14.6-29.2c8-16 15.3-30.2 16.1-31.5 2.1-3.2 6.5-3.1 8.7.2zM468 602v52l-25.2-.2-25.3-.3v-2.6c0-2.1 49.1-100.9 50.2-100.9.2 0 .3 23.4.3 52zm161.9 10.8c10.5 19.9 19.1 37.1 19.1 38.1 0 2.7-2.5 3.1-21.7 3.1H610v-39.2c0-21.5.2-38.9.4-38.7.2.2 9 16.7 19.5 36.7z"/></svg>